<svg width="16" height="16" viewBox="0 0 128 128" xmlns="http://www.w3.org/2000/svg">
  <defs>
    <linearGradient id="bgGradient" x1="0%" y1="0%" x2="100%" y2="100%">
      <stop offset="0%" style="stop-color:#667eea;stop-opacity:1" />
      <stop offset="100%" style="stop-color:#764ba2;stop-opacity:1" />
    </linearGradient>
    <linearGradient id="textGradient" x1="0%" y1="0%" x2="100%" y2="100%">
      <stop offset="0%" style="stop-color:#ffffff;stop-opacity:1" />
      <stop offset="100%" style="stop-color:#e0e0e0;stop-opacity:1" />
    </linearGradient>
  </defs>
  
  <!-- Background Circle -->
  <circle cx="64" cy="64" r="60" fill="url(#bgGradient)" stroke="#333" stroke-width="2"/>
  
  <!-- Robot Head -->
  <rect x="44" y="35" width="40" height="35" rx="8" ry="8" fill="#2d2d2d" stroke="#555" stroke-width="1.5"/>
  
  <!-- Robot Eyes -->
  <circle cx="52" cy="48" r="4" fill="#667eea"/>
  <circle cx="76" cy="48" r="4" fill="#667eea"/>
  
  <!-- Robot Mouth -->
  <rect x="56" y="58" width="16" height="3" rx="1.5" ry="1.5" fill="#667eea"/>
  
  <!-- Text Lines -->
  <rect x="20" y="80" width="88" height="3" rx="1.5" ry="1.5" fill="url(#textGradient)" opacity="0.9"/>
  <rect x="25" y="88" width="78" height="3" rx="1.5" ry="1.5" fill="url(#textGradient)" opacity="0.7"/>
  <rect x="30" y="96" width="68" height="3" rx="1.5" ry="1.5" fill="url(#textGradient)" opacity="0.5"/>
  
  <!-- AI Sparkles -->
  <circle cx="25" cy="25" r="2" fill="#ffffff" opacity="0.8"/>
  <circle cx="103" cy="30" r="1.5" fill="#ffffff" opacity="0.6"/>
  <circle cx="95" cy="105" r="2" fill="#ffffff" opacity="0.7"/>
  <circle cx="30" cy="110" r="1.5" fill="#ffffff" opacity="0.5"/>
</svg>